<?xml version="1.0" encoding="UTF-8"?><!DOCTYPE svg PUBLIC "-//W3C//DTD SVG 1.1//EN" "http://www.w3.org/Graphics/SVG/1.1/DTD/svg11.dtd"><svg xmlns="http://www.w3.org/2000/svg" xmlns:xlink="http://www.w3.org/1999/xlink"><defs><clipPath id="a"><path fill="#fff" d="M0 0h101v18H0z"/></clipPath><clipPath id="a"><path fill="#fff" d="M0 0h33.3v37.6H0z"/></clipPath><clipPath id="a"><path fill="#fff" transform="translate(.6)" d="M0 0h19.1v20H0z"/></clipPath><clipPath id="a"><path fill="#fff" transform="translate(15.5 14)" d="M0 0h30v32H0z"/></clipPath><clipPath id="a"><path fill="#fff" transform="translate(0 11)" d="M0 0h67v28H0z"/></clipPath><clipPath id="a"><path fill="#fff" transform="translate(7)" d="M0 0h36v50H0z"/></clipPath><clipPath id="a"><path fill="#fff" transform="translate(15.5 13)" d="M0 0h29v31H0z"/></clipPath></defs><symbol id="logo-cat-energy"><g fill="none"><g clip-path="url(#a)" fill="#111"><path d="M1.3 16.5A6.9 6.9 0 0 1 0 12.2V5.8a7 7 0 0 1 1.2-4.3C2 .5 3.4 0 5.4 0s3.2.5 4 1.3c.9 1 1.3 2.4 1.2 3.8v1.5H6.7V4.8c0-.5 0-1-.2-1.5L6 2.8l-.6-.1c-.6 0-1 .1-1.1.5C4 3.8 4 4.3 4 5v8.3l.3 1.6c.2.4.6.5 1.2.5.5 0 .8-.1 1-.5.2-.6.2-1.1.2-1.6v-1.9h3.9v1.5c0 1.4-.3 2.8-1.2 3.9-.8 1-2.1 1.4-4 1.4-2-.1-3.3-.6-4.1-1.6ZM15.3.2h4.5L23 17.8h-3.7l-.6-3.7h-2.6l-.6 3.7h-3.7L15.3.2Zm3.2 11.6-1-6.9-.9 6.9h1.9Zm7.3-8.6h-2.6v-3h9.4v2.9h-2.7v14.7h-4V3.2Zm14-3h7v1.9h-4.6v5.7h3.6v1.8h-3.6v6.5h4.5v1.7h-7V.2Zm9 0h1.7l5.1 11.6V.2h2v17.6h-1.5L51 5.8v12h-2.1V.2ZM60 .2h7v1.9h-4.5v5.7h3.6v1.8h-3.6v6.5H67v1.7h-7V.2Zm9 0h3.7c1.4 0 2.9.3 4 1.1 1 .7 1.3 2 1.3 3.5 0 2.3-.7 3.7-2.2 4.1l2.5 8.8H76l-2.4-8.2h-2v8.2H69V.2Zm3.5 7.6c.9 0 1.7-.2 2.3-.6.5-.4.8-1.2.8-2.4 0-.5-.1-1.1-.3-1.6a2 2 0 0 0-.9-1C74 2 73.3 2 72.7 2h-1.1v5.8h1Zm8.7 8.7A7.6 7.6 0 0 1 80 12V6.2c0-1.2 0-2.3.4-3.4a4 4 0 0 1 1.5-2c.8-.5 1.9-.7 2.9-.6 1.6 0 2.8.3 3.5 1.2a5.8 5.8 0 0 1 1.1 3.8v.6h-2.3v-.5c0-.6 0-1.3-.2-2 0-.3-.3-.7-.6-1L84.9 2c-.6 0-1.1.1-1.6.5a1.7 1.7 0 0 0-.6 1.2 14 14 0 0 0-.2 2v6.6c0 1 .1 2 .5 3 .3.5 1 .8 1.9.8a2 2 0 0 0 1.9-1c.4-1 .6-2 .5-3v-1.3H85V9.1h4.6v8.7H88l-.2-2c-.2.6-.6 1.2-1.2 1.6-.6.4-1.3.6-2 .6a4 4 0 0 1-3.4-1.5Zm13.5-4.9L90.8.3h2.4l2.7 8.5L98.6.3h2.4l-3.9 11.3v6.2h-2.3v-6.2h-.1Z"/></g></g></symbol><symbol id="logo-mobile"><g fill="none"><g clip-path="url(#a)"><path d="M6 20.7v-2.2c6.8-1 13.5-1.4 20.2-1.4V19c1.9-.8 4-1.4 6-1.8a16.7 16.7 0 0 0-32 3.3l5.9.3Zm21.2 3.5c-1.1 1.3-1.3 1.2-1.3 3.5v9.2a16.6 16.6 0 0 0 7.1-17c-2 1.2-4 2.7-5.8 4.3ZM6.4 25.7 1.2 24 0 23.6a16.6 16.6 0 0 0 8.7 14L6.4 25.7Z" fill="#FDC305"/><path d="M26.3 17.1c0-5.5-.4-11-1.4-16.5 0 0-.1-1.2-.9-.2-.6 1.3-1 2.6-1.2 4-4.3-.3-8.5-.2-12.8.3C9.2 2 7.8.7 7.2 1c-.7.3-.7 3.3-.7 3.3L6 18.4c6.7-.9 13.4-1.3 20.2-1.3Z" fill="#F06351"/><path d="m12.4 14 1.4 1c.4.2.6.3.6.5s-.2.3-.6.3c-.4 0-1 0-1-.2H14L12.4 14Zm7.5.1-1.1 1.3c0 .1-.2.4.2.3l1.2-.3-.1-.1h-1l.8-1.2s.1-.1 0 0Zm-3.1 6.1c.4-.2.8-.6 1-1 .3-.6 0-1-.4-1-.6-.1-1.2 0-1.7.3-.4.4-.4.8 0 1l1 .7Z" fill="#000"/><path d="M16.4 21.4a2 2 0 0 1-.5.7c-.3.2-.6.3-1 .3-.5 0-1 0-1.5-.4l-.5-.4a1 1 0 0 0-.4-.3s.8 4.1 2.6 4.8c1.8.6 2.1-.8 2.2-1.2 0-1.1-.2-2.2-.8-3.2l-.1-.3Z" fill="#F06351"/><path d="M14.7 22.6a3.4 3.4 0 0 1-2.4-1.5.1.1 0 0 1 0-.1.1.1 0 0 1 .3 0c.5.7 1.2 1.1 2 1.3a2 2 0 0 0 1.7-1l.2-.2v.2s.4.8 1 .8c.7 0 1.1-.4 1.7-1.3a.1.1 0 0 1 .2 0 .2.2 0 0 1 0 .2c-.6 1-1.3 1.4-1.9 1.4a1.5 1.5 0 0 1-1-.8 2.3 2.3 0 0 1-1.8 1Z" fill="#000"/><path d="M26.2 19a58.6 58.6 0 0 0-5 5.1 31.6 31.6 0 0 1-5.3 4.9c-.2-.5-1.6-1.5-1.6-1.5S11 25.4 9 23.7l-3.1-3-2-.1c2.8 4.2 7 7.3 12 8.8.8-.2 3.2-1.9 5-3.3 2.1-1.8 4.1-3.8 6-5.9.5-.6.8-1.3 1.1-2l-1.9.7Z" fill="#F06351"/></g></g></symbol><symbol id="logo-tablet"><g fill="none"><path d="M59.9 23.8A25.4 25.4 0 0 0 39.6 8.4 25.8 25.8 0 0 0 16 18a25.3 25.3 0 0 0 16.5 40.7c-.6-2-1.2-4.3-1.7-6.8 1.5 1 3.1 1.8 4.8 2.6l.3 4.5c1.7 0 3.5-.1 5.3-.5v-.7c.3-1.9 1-5.2 1.2-7.4 1.2-1 2.2-2.3 3-3.7l-.1.5c-.6 4.2-1.7 8.7-2.4 10l-.8 1.1a25.7 25.7 0 0 0 19.7-23.7c.2-3.7-.5-7.4-2-10.8Zm-1.5 3.8c-.4.4-1.3.7-1.5-.6a34 34 0 0 1-.2-2.2s-2-3.4-2.6-3.4c-.7 0-5.9 3.4-7.2 5-1.2 1.2-1.4 1.1-1.4 3.4 0 1.7.2 8 0 13l-8 2.1c-2.6.7-5.2 1.3-7.9 1.7l-1-5.8h-.1l-2.6-13s-3.8-1.5-5.2-1.8a3.8 3.8 0 0 0-4 .6 5 5 0 0 0-1.7 3.8l.5 1.4c0 .5-1.2.5-2 .5s-1-1.5-.3-3.1a22.5 22.5 0 0 1 3.9-6.6s.1-.4 1.2-.3l7.3.5v-2.3A144 144 0 0 1 46 19.2V21c2.6-1.2 5.3-1.8 8.1-2a1 1 0 0 1 .8.4l2.7 3.4 1.8 3-.9 1.8Z" fill="#FDC305"/><path d="m56.5 21.5 1 1.3 1.8 3c-.2.6-.5 1.2-.9 1.7-.4.4-1.3.7-1.5-.6l-.2-2.1s-2-3.4-2.6-3.4c-.7 0-5.9 3.4-7.2 5-1.2 1.2-1.4 1.1-1.4 3.4 0 1.4.2 6.6.1 11.1 1.8.2 4.5.7 5.3 1.9 0 0-.3-7.2 7.8-3.4 0 0 .3-9.7 11.5-7.3-3.8-4.4-8.5-8-13.7-10.6ZM46 19.2c0-5.5-.5-11-1.5-16.4 0 0-.1-1.3-.8-.2a14 14 0 0 0-1.2 4c-4.3-.3-8.6-.2-12.9.3-.8-2.8-2.2-4-2.8-3.7-.7.4-.8 3.3-.8 3.3l-.3 14a144 144 0 0 1 20.2-1.3Z" fill="#F06351"/><path d="m45.4 46.7.2-4-8.2 2.2c-2.5.7-5.1 1.3-7.8 1.7l1.2 5v.3c1.5 1 3.1 1.8 4.8 2.5 2.4-1.1 4.7-2.5 6.9-4 1.1-1 2-2.3 2.9-3.7Z" fill="#E55645"/><path d="m32 16 1.4 1c.4.2.6.4.6.6 0 .2-.2.3-.6.3-.4 0-1 0-1-.2s.6 0 1 0h.2A8 8 0 0 1 32 16Zm7.5.2-1 1.3c-.2 0-.3.4.1.3l1.2-.3c.1 0 0-.2-.1-.1h-1l.9-1.2s0-.1-.1 0Zm-3.1 6.1c.4-.2.8-.6 1-1 .3-.7 0-1-.4-1-.6-.1-1.2 0-1.7.3-.4.4-.4.7 0 1l1 .7Z" fill="#000"/><path d="M36 23.5a2 2 0 0 1-.5.6c-.2.2-.6.4-1 .4-.5 0-1-.1-1.5-.5a2 2 0 0 1-.5-.4 1 1 0 0 0-.4-.3s.8 4.1 2.6 4.8c1.8.6 2.1-.8 2.2-1.1 0-1.2-.2-2.3-.8-3.3 0-.3 0 0-.1-.2Z" fill="#F06351"/><path d="M34.3 24.6a3.5 3.5 0 0 1-2.3-1.4.1.1 0 0 1 0-.2.1.1 0 0 1 .1 0 3.2 3.2 0 0 0 2.2 1.3 2.1 2.1 0 0 0 1.6-1l.1-.2.1.3s.4.7 1 .8c.7 0 1.1-.5 1.7-1.3a.1.1 0 0 1 .2 0 .1.1 0 0 1 0 .1c-.7 1-1.3 1.5-1.9 1.4a1.6 1.6 0 0 1-1.1-.7 2.3 2.3 0 0 1-1.7 1Z" fill="#000"/><path d="M36.3 38c2 0 3.7-1.7 3.7-3.7s-1.7-3.7-3.7-3.7c-2.1 0-3.8 1.6-3.8 3.7 0 2 1.7 3.7 3.8 3.7Z" fill="#FDC305"/><path d="m41.2 31.2-3.1 1.3 1.2-5.5-7.5 9.6 3-1.3-1 5.6 7.4-9.7ZM33.8 35l4.2-5.3-.8 4 2-.9-4.2 5.4.8-4-2 .8Zm-1.4-1.4c.7 0 1.2-.5 1.2-1.1 0-.6-.5-1.1-1.2-1.1-.6 0-1 .5-1 1 0 .7.4 1.2 1 1.2Zm6.6 4c.4 0 .8-.3.8-.8 0-.4-.4-.8-.8-.8-.5 0-.8.4-.8.8 0 .5.3.8.8.8Zm1-2.1c.1 0 .3-.2.3-.4s-.2-.3-.4-.3-.3.1-.3.3c0 .2.1.4.3.4Z" fill="#111"/><path d="M45.9 21a57.2 57.2 0 0 0-5.1 5.2 31.8 31.8 0 0 1-5.3 4.8c-.2-.5-1.6-1.5-1.6-1.5s-3.2-2.1-5.2-3.8l-3.2-3h-2c2.9 4.1 7.1 7.2 12 8.7.9-.2 3.3-1.9 5.1-3.3 2.1-1.8 4.1-3.7 6-5.8.5-.6.9-1.3 1.1-2L46 21Z" fill="#F06351"/><path d="m65.2 3.5-8.4 9.3-1.3-2L63.7 0l1.5 3.5Zm-2.5 13.6 5.5-4-.8-3.8-5.4 4.8.7 3ZM60 49l6 3.1 3-2.3-6.6-2.7-2.5 1.9ZM2 6l3-3.4 9.3 9-1.2 2.2L1.9 5.9Zm5.4 10.1-4.7-3-2.4 3.8 5.1 2.4 2-3.2Zm6.6 36-4.6 3.3 2.8 3.6 4-4-2.3-2.9Z" fill="#FDC305"/><path d="M26 27.8s-4-1.5-5.4-1.8a3.8 3.8 0 0 0-4 .6 5 5 0 0 0-1.7 3.8l.5 1.4c0 .5-1.2.5-2 .5s-1-1.5-.3-3.1c.5-1.3 1-2.6 1.8-3.7-5.4 2.8-15 9.3-15 9.3 2.7-.2 5.5-.1 8.2.2 5.2.5 5 4.6 5 4.6a39 39 0 0 1 5.6-1c2.1-.2 2.3 2 2.3 2l.5 3.9c.8-.9 1.7-1.7 2.7-2.4a6 6 0 0 1 4.4-1.3l-2.8-13Z" fill="#F06351"/></g></symbol><symbol id="sprite"/><symbol id="catalog-icon-gift"><g fill="none"><path d="M64 34.7H14a3.2 3.2 0 0 1-3.2-3.1V22c0-1.8 1.5-3.2 3.2-3.2h50c1.8 0 3.2 1.4 3.2 3.2v9.5c0 1.7-1.4 3.1-3.2 3.1ZM14 21.3c-.4 0-.7.4-.7.8v9.5c0 .4.3.7.7.7h50c.4 0 .8-.3.8-.7V22c0-.4-.4-.8-.8-.8H14Z" fill="#fff"/><path d="M57 67.1H21a6.1 6.1 0 0 1-6.1-6V33.5c0-.7.5-1.2 1.2-1.2s1.2.5 1.2 1.2v27.6c0 2 1.7 3.6 3.7 3.6h36c2 0 3.7-1.6 3.7-3.6V33.5c0-.7.6-1.2 1.2-1.2.7 0 1.3.5 1.3 1.2v27.6c0 3.3-2.8 6-6.2 6Z" fill="#fff"/><path d="M39 67.1c-.7 0-1.2-.5-1.2-1.2V33.5c0-.7.5-1.2 1.2-1.2s1.2.5 1.2 1.2v32.4c0 .7-.5 1.2-1.2 1.2ZM23.8 21.3a7.8 7.8 0 0 1-3.2-10.6 8 8 0 0 1 10.7-3.1c5.8 3.1 9 11.8 9 12.2l-2.2.8s-3-8.2-8-10.9a5.4 5.4 0 1 0-5.2 9.5l-1 2.1Z" fill="#fff"/><path d="m54.2 21.3-1.1-2a5.4 5.4 0 0 0-1-10 5.4 5.4 0 0 0-4.2.4c-5 2.7-8 10.8-8 11l-2.2-.9c0-.4 3.2-9 9-12.2a7.9 7.9 0 0 1 11.3 9c-.6 2.1-2 3.7-3.8 4.7ZM62 51H16c-.6 0-1.1-.6-1.1-1.3 0-.6.5-1.2 1.2-1.2h45.8c.7 0 1.3.6 1.3 1.2 0 .7-.6 1.2-1.3 1.2Z" fill="#fff"/></g></symbol><symbol id="htmlacademy" viewBox="0 0 60 60"><path fill="#2E368F" d="M30.2 5H30L10.3 7.1v36.2L30 55l19.7-11.7V7.1L30.2 5zm17 36.8L30 52 12.8 41.8V27l17.1 10.2V39l-11.7-7v1.8L30 40.9v1.9l-11.8-7v1.8l11.8 7 11.9-7.1v-7.6l5.3-3.2v15.1zm-.1-17-4.7 2.8-2.2 1.3-10.3-6.1v1.8l8.8 5.3h-.1l-.2.1-1.3.7-7.3-4.3v1.8l5.8 3.4-1.4.9-4.3-2.6v1.8l2.9 1.7-2.9 1.7-17-10.1 17-10.2 17.2 10zm.1-1.8L29.9 12.8 12.8 23V9.4L30 7.6l17.2 1.8V23z"/></symbol><symbol id="logo_html"><g fill="none"><path d="M13.6 0h-.1L0 1.4V26l13.5 8L27 26V1.4L13.6 0Zm11.6 25-11.7 7-11.7-7V15l11.7 6.8v1.3l-8-4.7v1.2l8 4.8v1.3l-8-4.8v1.2l8 4.9 8.1-4.9V17l3.6-2.1V25Zm0-11.5L22 15.3l-1.5 1-7-4.3v1.2l6 3.6-.2.1-.8.5-5-3v1.3l3.9 2.3-1 .6-3-1.7v1.2l2 1.2-2 1.1-11.6-6.8 11.6-7 11.8 6.9Zm0-1.3L13.4 5.3l-11.6 7V3l11.7-1.2L25.2 3v9.2Z" fill="#666"/></g></symbol><symbol id="telegram"><g fill="none"><path fill-rule="evenodd" clip-rule="evenodd" d="m23.5 3.2.2.6L21 19.5a.7.7 0 0 1-1 .5l-8-5.3a.7.7 0 0 1 0-1l2.5-3.2-4.3 2.9h-.7l-5.2-2.6a.7.7 0 0 1 0-1.2L22.8 3c.2 0 .5 0 .7.2ZM6.3 10.3l3.6 1.8 7.5-5a.7.7 0 0 1 .9 1l-4.8 6 6.4 4.2 2.3-13.6-15.9 5.6Z" fill="#666"/></g></symbol><symbol id="vkontakte"><g fill="none"><path d="M1 5.3C1 4.5 1.5 4 2.5 4h4c.3 0 .5.1.5.4l1.4 3.2a39.8 39.8 0 0 0 2.4 3.4s.2 0 .2-.2l.1-.3V6.2c0-.3 0-.5-.2-.6l-.8-.2c-.3 0-.5-.3-.5-.6v-.1C10 3.6 11.1 3 12.8 3h1.5c.7 0 1.3.2 1.7.5.4.3.7.8.7 1.5v5.7l.3.1c.3 0 .5-.1.7-.4A17.7 17.7 0 0 0 21 5l.6-.7.8-.4h4.5c.4 0 .7.2.8.5l.2.3a2.4 2.4 0 0 1 0 .6v.1c0 .7-.4 1.5-.9 2.2-.5.8-1.1 1.7-2 2.6a27.6 27.6 0 0 0-1.6 2.3c0 .1 0 .3.2.5l3.9 4.6c.2.3.3.5.3.9s-.2.7-.5 1a2 2 0 0 1-1.1.3h-4.6l-.1.1c-.4 0-.8-.2-1.1-.5a241.3 241.3 0 0 1-3-3.3 38.5 38.5 0 0 0-.4 2.3l-.1.4c-.2.6-.6 1-1.1 1h-3c-1.5 0-3-.6-4.4-1.8-1.5-1.3-2.8-3-4-5A47.5 47.5 0 0 1 1 5.3ZM17 12c-.4 0-.7-.1-1-.3a.9.9 0 0 1-.5-.8V5c0-.3 0-.6-.2-.7-.2-.2-.5-.2-1-.2h-1.5c-.7 0-1.3.1-1.7.4.8.3 1.2 1 1.2 1.7v4.4c0 .4-.2.8-.6 1-.3.3-.6.5-1 .5-.6 0-1-.3-1.3-.8-1.3-2-2.4-3.8-3-5.6L6 5.1H2.2v.7l.6 1.4a33 33 0 0 0 4.8 8.6c1.8 2 3.5 3.1 5.2 3.1h2.9l.1-.4v-.3l.6-2.2.3-.6c.2-.2.5-.3.7-.3.5 0 .9.3 1.3.8l2.3 2.7c.2.2.3.3.5.3h4.4c.5 0 .8-.1.8-.4l-.1-.2-3.9-4.6c-.3-.3-.4-.7-.4-1 0-.5.1-.9.4-1.3L24 9.8l1.8-2.2c.5-.7.8-1.3 1-1.9v-.6h-4.2c-.3 0-.5.2-.6.4l-.2.5c-.4 1.1-1.6 3-3.5 5.3-.4.4-.8.6-1.3.6Z" fill="#666"/></g></symbol><symbol id="youtube"><g fill="none"><path d="m17.9 10.8-5.3-3.5a.7.7 0 0 0-1 .5v7a.7.7 0 0 0 1 .6l5.3-3.5a.7.7 0 0 0 0-1.1Zm-5 2.8V9.1l3.4 2.2-3.4 2.3ZM25.4 5a2.4 2.4 0 0 0-1.5-1.6C20.2 2 14.3 2 14 2c-.3 0-6.2 0-10 1.4A2.4 2.4 0 0 0 2.7 5C2.3 6.1 2 8 2 11.3s.3 5.3.6 6.3a2.4 2.4 0 0 0 1.5 1.7c3.7 1.4 9.6 1.4 9.9 1.4.8 0 6.4 0 10-1.4a2.4 2.4 0 0 0 1.4-1.7c.3-1 .6-3 .6-6.3 0-3.2-.3-5.2-.6-6.3ZM24 17.3a1 1 0 0 1-.6.7C20 19.4 14 19.4 14 19.4s-6 0-9.5-1.4a1 1 0 0 1-.6-.7c-.3-1-.6-2.8-.6-6 0-3 .3-5 .6-6a1 1 0 0 1 .6-.7C8 3.3 14 3.3 14 3.3s6 0 9.5 1.3a1 1 0 0 1 .6.8c.3 1 .6 2.8.6 6 0 3-.3 4.9-.6 6Z" fill="#666"/></g></symbol><symbol id="icon"><g fill="none"><rect width="32" height="32" rx="8" fill="#EEE"/><path d="M5.826 20.98a4.476 4.476 0 0 1-.814-2.89v-4.18a4.545 4.545 0 0 1 .802-2.918c.538-.665 1.458-.996 2.76-.992 1.302.004 2.183.295 2.644.875.562.718.837 1.605.773 2.501v.98H9.585v-1.063a5.348 5.348 0 0 0-.075-.836.922.922 0 0 0-.273-.53.918.918 0 0 0-.669-.205.881.881 0 0 0-.504.076.834.834 0 0 0-.367.341c-.153.392-.22.809-.198 1.226v5.304c-.026.42.051.84.227 1.225.084.14.208.252.358.324.15.072.318.101.484.083a.814.814 0 0 0 .477-.08.768.768 0 0 0 .337-.332 3.13 3.13 0 0 0 .18-1.22v-1.115h2.406v.964a3.915 3.915 0 0 1-.715 2.568c-.511.613-1.395.914-2.65.914s-2.237-.334-2.777-1.02ZM15.21 10h2.597L20 22h-2.16l-.389-2.651h-1.82l-.438 2.634H13L15.21 10Zm2 7.84-.69-4.823-.686 4.823h1.376ZM21.813 11.808H20V10h6v1.808h-1.791V22h-2.401l.005-10.192Z" fill="#111"/></g></symbol><symbol id="program-form-arrow"><g fill="none"><path d="M7 11.7 1.3 5.3l-1 1.2L7 14 18.3 1.4 17.1 0 7 11.7Z" fill="#68B738"/></g></symbol><symbol id="program-icon-email"><g fill="none"><path stroke="#222" stroke-width="1.3" d="M1.2 6v8m17-8v8M.5 13.3h18M.5 1.4h18m-.6 1.8L9.5 9.7 1.2 3.2V1.6h16.7v1.6Z"/></g></symbol><symbol id="program-icon-phone"><g fill="none"><g clip-path="url(#a)" fill="#000"><path d="M17.8 9.4H9.6v1.2h8.2l-2 2.1.8.9 3-3.1a.8.8 0 0 0 0-.9l-3-3.1-.9.9 2 2Zm-9.4 10v-6.2l-.2-.4a.6.6 0 0 0-.4-.2H3.6c0 .3.1.6.3.8.2.3.5.4.8.4h2.4v5H3.6a1.6 1.6 0 0 1-1.3-.5 1.8 1.8 0 0 1-.5-1.2v-14c0-.5.1-1 .4-1.2.3-.4.8-.6 1.2-.6h3.7v5H4.8c-.3 0-.6.1-.8.4-.2.2-.3.5-.3.8h4.2c.1 0 .3 0 .4-.2l.2-.4V.6c0-.2-.2-.3-.3-.4a.8.8 0 0 0-.4-.2H3.6a2.8 2.8 0 0 0-2 .8A3 3 0 0 0 .5 3v13.9a3 3 0 0 0 .8 2.2 2.8 2.8 0 0 0 2 .9h4.4a.5.5 0 0 0 .4-.1.5.5 0 0 0 .2-.4Z"/></g></g></symbol><symbol id="index-eat"><g fill="none"><path fill="#68B738" d="M.5 0h60v60H.5z"/><path fill-rule="evenodd" clip-rule="evenodd" d="M37.1 15c.4 0 .8 0 1.1.3 1 .9 2.1 2.9 3 6 1 3 1.8 7.2 1.8 12.7 0 .6-.4 1-1 1h-3.5v9a1 1 0 1 1-2 0V16c0-.4.2-.8.6-1Zm1.4 18H41a39.6 39.6 0 0 0-2.5-13.5V33Zm-14-18c.6 0 1 .4 1 1v28a1 1 0 1 1-2 0V16c0-.6.4-1 1-1Z" fill="#fff"/><path fill-rule="evenodd" clip-rule="evenodd" d="M20 15c.6 0 1 .4 1 1v5.5c0 .6.2 1.3.7 2 .5.5 1.3 1 2.8 1a1 1 0 1 1 0 2c-2 0-3.4-.7-4.3-1.8a5 5 0 0 1-1.2-3.2V16c0-.6.4-1 1-1Z" fill="#fff"/><path fill-rule="evenodd" clip-rule="evenodd" d="M29 15a1 1 0 0 0-1 1v5.5a3 3 0 0 1-.7 2c-.5.5-1.3 1-2.8 1a1 1 0 0 0 0 2c2 0 3.4-.7 4.3-1.8a5 5 0 0 0 1.2-3.2V16c0-.6-.4-1-1-1Z" fill="#fff"/></g></symbol><symbol id="index-leaf"><g fill="none"><path fill="#68B738" d="M.5 0h60v60H.5z"/><g clip-path="url(#a)"><path d="M43.3 16.8a1 1 0 0 0-.9-.8c-5 0-17 1-21.8 8.4-2.5 3.9-2.7 8.9-.6 15-.7 2-1 3.4-1 3.4 0 .5.2 1 .7 1.2h.2a1 1 0 0 0 1-.8s2.4-10.4 10.8-16.4c.4-.3.6-.9.3-1.4a.9.9 0 0 0-1.3-.2 30 30 0 0 0-9.5 11.6c-1.3-4.6-1-8.4 1-11.3 3.7-5.7 12.6-7.1 18-7.4A20 20 0 0 0 37.7 29c0 3.1-.8 5.5-2.4 7.1-2.6 2.6-6.9 2.9-10 2.6-.5 0-1 .4-1 1 0 .5.3 1 .8 1l2 .1c3.2 0 6.9-.7 9.5-3.2 2-2 3-4.9 3-8.6 0-9.1 3.2-11 3.3-11.1.3-.2.5-.7.4-1.1Z" fill="#fff"/></g></g></symbol><symbol id="index-program-arrow"><g fill="none"><path stroke="#000" stroke-width="2" d="M0 6h18"/><path d="m24 6-6.8 5.2V.8L24 6Z" fill="#000"/></g></symbol><symbol id="index-program-cat-pro"><g fill="none"><circle cx="34.5" cy="25" r="25" fill="#68B738"/><g clip-path="url(#a)"><path d="M61.5 13.9c.6-1 1.4-1.7 2.3-2.3.5-.3.8-.3 1.1.3.4 1 .8 2 .4 3a1.1 1.1 0 0 0 .3 1l.8 1.2a3.1 3.1 0 0 1 .4 3.1c-.2.5-.2 1-.1 1.6v1.4a1.9 1.9 0 0 1-1.4 1.7c-.6 0-1.2.4-1.5 1a.5.5 0 0 1-.5.2c-.6.1-2.1-1.3-2.1-1.9V24c0-1.8 0-1.9-1.7-2.6-.3-.2-.7-.4-.9-.7-.3-.4-.7-.3-1.1-.2-.5.2-.8.5-.7 1 .2 1.2.2 2.4.2 3.7v.3c1.6 2.3 2.2 5 3 7.5.5 2 1.6 3 3.6 3.1l1 .2a2 2 0 0 1 1.7 1.6c.4 1 .2 1.3-.9 1.3h-3.3c-.4 0-.8-.1-1.1-.4-.5-.4-1-.8-1.7-1-.7-.3-1.3-.7-1.7-1.3l-2-2.3c-1.4-1.4-2.9-2.8-4.2-4.3-1-1-1.6-2.4-1.6-3.8 0-.4-.1-.6-.6-.4a1 1 0 0 1-.5.1c-1.4 0-2.1.9-2.6 2.1L44.5 31c-.3.7-.5 1.4-.5 2.1 0 1.2.3 1.6 1.4 2 .7.3 1.4.5 1.7 1.2.4.8.3 1-.6 1h-3.4a1 1 0 0 1-.9-.5l-.9-1.5a3 3 0 0 1-.3-2.7 6 6 0 0 0 0-2.6 4.2 4.2 0 0 1 .9-3.5c.3-.4.3-.5-.3-.6a25 25 0 0 1-5.9-2.2c-1.6-.6-1.9-.5-2.4 1.2-.3 1.4-.8 2.8-1 4.3-.4 1.5 0 3 .5 4.5.2.6.8.6 1.3.8 1 .3 1.8.6 2.2 1.7.4.8.3.9-.5.9h-2.6c-.8 0-1.6-.2-2.2-.7-2.4-1.6-3-4-3.3-6.7 0-1.7-1-3-2-4.2-.2-.3-.4-.3-.7-.1l-3.4 1.4c-2.4.9-4.5 2.4-6 4.4-.6.8-1 1.7-1.2 2.6-.1.9.2 1.3 1 1.5 1 .3 1.4.8 1.5 1.8 0 .4-.1.5-.5.5h-4a.8.8 0 0 1-.7-.4c-.6-.7-1-1.7-1-2.7 0-1.7.2-3.5.5-5.1a3.1 3.1 0 0 1 1.7-2.4c3-1.4 4.5-4.1 5.9-6.8.3-.6 0-.7-.4-.7-1.4.2-2.8.8-3.9 1.7-1.5 1-2.9 2.2-4.2 3.5a8.3 8.3 0 0 1-5 2.3c-3.8.4-5.5-1.7-5.3-5 0-1.1.5-2.2 1.2-3a2.1 2.1 0 0 1 2.2-.8c.8.2 1 .6.7 1.3l-.5.9-.5 1c-.6 1.5.2 2.6 1.7 2.7 1.7.1 3-.6 4.3-1.6 1.5-1.2 2.9-2.6 4-4.1a10.4 10.4 0 0 1 7.2-4c1.1-.2 2.1-.7 3.3-1 2-.6 4.1-1 6.3-.9 1 0 2-.1 2.9-.6 2.5-1 5-1 7.6-.5l5.9 1.4c1.2.3 2.4.2 3.5 0 2.2-.6 4.4-1 6.7-1a9 9 0 0 1 4.3.8c1 .4 1 .4.8 1.4Z" fill="#000"/></g></g></symbol><symbol id="index-program-cat-slim"><g fill="none"><circle cx="25" cy="28" r="25" fill="#68B738"/><g clip-path="url(#a)"><path d="M35.2 0H35c-.3.2-.6.5-.7.8a8 8 0 0 0-.7 1.8.8.8 0 0 1-.8.7 3.8 3.8 0 0 0-2.7 2 14 14 0 0 0-1 2L27.3 13c-.3 1-.3 1-1.3 1-1.2 0-1-.3-1.1 1 0 .4.1.6.5.6l.4.1c0 .2 0 .3-.2.4-.6.6-1.4 1-2.2 1.2l-3 .8c-2.4.8-4.6 2-6.4 4-1 1.1-1.9 2.5-2.4 4A56.6 56.6 0 0 0 7.9 40a97 97 0 0 0-.7 6.7L7 50h17.1v-.7a2.6 2.6 0 0 0-2-1.5c-.4-.1-.4-.2-.2-.5l.8-1.6c.8-2.5 1.2-5 1.6-7.6.2-2 .8-3.9 1.7-5.6.8-1.3 1.7-2.4 2.9-3.3.4-.3.4-.3.5.2l.1 1.1c.2 2.5.1 5 0 7.3a31.9 31.9 0 0 0 1 12.2h6.8a2.8 2.8 0 0 0-2.1-2.3l-2 .1c-.3 0-.4 0-.4-.3-.2-2.7 0-5.5.5-8.2.7-3 1.2-6.2 1.6-9.3 0-1.3.5-2.5 1.1-3.7l1.8-3.3a3 3 0 0 0 .2-2.7l-.5-1-1.5-3c-.2-.6-.1-.6.4-.7.9 0 .9 0 .9-.8v-.3c0-.4-.2-.6-.5-.6H36c-.4 0-.5-.1-.4-.5a3.2 3.2 0 0 1 2.6-2.3c1.2 0 2.3 0 3.4.3a.5.5 0 0 0 .7-.4 40 40 0 0 1 .7-1.8l-.1-.3a18.3 18.3 0 0 0-6.2-5.5l-.1-.4-.7-2.1c-.1-.4-.4-.7-.7-.9Z" fill="#000"/></g></g></symbol><symbol id="index-time"><g fill="none"><path fill="#68B738" d="M.5 0h60v60H.5z"/><circle cx="35.7" cy="24.3" fill="#fff" r="1.1"/><circle cx="24.8" cy="24.3" fill="#fff" r="1.1"/><circle cx="24.8" cy="37.4" fill="#fff" r="1.1"/><circle cx="30.3" cy="39.5" fill="#fff" r="1.1"/><circle cx="21.6" cy="30.8" fill="#fff" r="1.1"/><circle cx="39" cy="30.8" fill="#fff" r="1.1"/><circle cx="35.7" cy="37.4" fill="#fff" r="1.1"/><mask id="a" fill="#fff"><path fill-rule="evenodd" clip-rule="evenodd" d="M35.4 42a1 1 0 0 1 1.2.3l1.9 1.8a.7.7 0 0 0 1-1L38 41.9c-.4-.5-.4-1.2 0-1.6 2.7-2.3 4.4-5.7 4.4-9.6 0-7-5.5-12.6-12.2-12.6C23.5 18 18 23.6 18 30.6c0 3.8 1.7 7.2 4.3 9.6a1 1 0 0 1 0 1.5L21 43.2a.7.7 0 1 0 1 1l1.9-2A1 1 0 0 1 25 42a11.9 11.9 0 0 0 10.4 0Zm-5.1-.2c6 0 10.8-5 10.8-11.2a11 11 0 0 0-10.8-11.2c-6 0-11 5-11 11.2a11 11 0 0 0 11 11.2Zm-.8-11.5v-7.4a.8.8 0 1 1 1.6 0v8.2c0 .5-.4.8-.8.8a.8.8 0 0 1-.8-.7v-.9Z"/></mask><path fill-rule="evenodd" clip-rule="evenodd" d="M35.4 42a1 1 0 0 1 1.2.3l1.9 1.8a.7.7 0 0 0 1-1L38 41.9c-.4-.5-.4-1.2 0-1.6 2.7-2.3 4.4-5.7 4.4-9.6 0-7-5.5-12.6-12.2-12.6C23.5 18 18 23.6 18 30.6c0 3.8 1.7 7.2 4.3 9.6a1 1 0 0 1 0 1.5L21 43.2a.7.7 0 1 0 1 1l1.9-2A1 1 0 0 1 25 42a11.9 11.9 0 0 0 10.4 0Zm-5.1-.2c6 0 10.8-5 10.8-11.2a11 11 0 0 0-10.8-11.2c-6 0-11 5-11 11.2a11 11 0 0 0 11 11.2Zm-.8-11.5v-7.4a.8.8 0 1 1 1.6 0v8.2c0 .5-.4.8-.8.8a.8.8 0 0 1-.8-.7v-.9Z" fill="#fff"/><path d="m23.8 42.2 2.8 2.8-2.8-2.8ZM25 42l1.8-3.6L25 42Zm-3 2.1-3-2.8 2.9 2.8Zm-1-1 2.9 2.9-2.9-2.8Zm17.2-1.3-2.9 2.8 2.9-2.8Zm0-1.6-2.6-3 2.7 3Zm-15.8 0-2.7 3 2.7-3Zm0 1.5L19.6 39l2.9 2.8Zm17.1 1.5 3-2.8-3 2.8Zm-1 1 3-2.9-3 2.8Zm-1.8-2L33.8 45l2.8-2.7Zm-1.2-.1-1.7-3.6 1.7 3.6Zm-1.6 3 1.8 1.8 5.7-5.6-1.8-1.8-5.7 5.5Zm8.5-4.7L41 39l-5.8 5.6 1.4 1.4 5.7-5.6Zm-1.5 2.8c3.5-3 5.7-7.6 5.7-12.6h-8c0 2.7-1.2 5-3 6.6l5.3 6Zm5.7-12.6c0-9-7.2-16.6-16.2-16.6v8c4.4 0 8.2 3.7 8.2 8.6h8ZM30.3 14C21.2 14 14 21.6 14 30.6h8c0-4.9 3.8-8.6 8.3-8.6v-8ZM14 30.6c0 5 2.2 9.5 5.6 12.5l5.3-6a8.8 8.8 0 0 1-2.9-6.5h-8Zm5.5 8.3-1.4 1.5 5.7 5.6 1.4-1.5-5.7-5.6Zm5.3 8 1.8-2-5.7-5.5-1.9 2 5.8 5.5Zm-1.6-1.3c2.2 1 4.6 1.6 7 1.6v-8c-1.2 0-2.4-.3-3.4-.8l-3.6 7.2Zm7 1.6c2.5 0 4.9-.5 7-1.5l-3.5-7.2c-1 .5-2.2.7-3.4.7v8Zm0-1.4a15 15 0 0 0 15-15.2h-8a7 7 0 0 1-7 7.2v8Zm15-15.2a15 15 0 0 0-15-15.2v8a7 7 0 0 1 7 7.2h8Zm-15-15.2a15 15 0 0 0-14.8 15.2h8a7 7 0 0 1 6.9-7.2v-8ZM15.5 30.6a15 15 0 0 0 14.9 15.2v-8a7 7 0 0 1-7-7.2h-8Zm11.7-.3v.5h8v-.5h-8Zm0 .5v.3h8v-.3h-8Zm6.4.4v-.4h-8v.4h8Zm0-.4v-.5h-8v.5h8Zm0-.5v-3.8h-8v3.8h8Zm0-3.8v-3.6h-8v3.6h8Zm-6.4-3.6v3.6h8v-3.6h-8Zm0 3.6v3.8h8v-3.8h-8Zm3.2-8.3a4.8 4.8 0 0 0-4.8 4.7h8c0 1.8-1.4 3.3-3.2 3.3v-8Zm-3.2 13c0-1.8 1.4-3.3 3.2-3.3v8c2.6 0 4.8-2.1 4.8-4.8h-8ZM26.6 45a3 3 0 0 1-3.4.6l3.6-7.2a5 5 0 0 0-5.9 1l5.7 5.6Zm-8.5 2a4.7 4.7 0 0 0 6.7 0L19 41.2a3.3 3.3 0 0 1 4.8 0L18 47Zm0-6.6a4.7 4.7 0 0 0 0 6.5l5.7-5.6a3.3 3.3 0 0 1 0 4.7L18 40.4ZM41 39a3 3 0 0 1-.2 4.2l-5.3-6a5 5 0 0 0-.3 7.4L41 39ZM30.3 26.2a3.2 3.2 0 0 1-3.2-3.3h8c0-2.6-2.2-4.7-4.8-4.7v8Zm-10.7 17a3 3 0 0 1-.1-4.3l5.7 5.6a5 5 0 0 0-.3-7.3l-5.3 6Zm22.7 3.7a4.7 4.7 0 0 0 0-6.5L36.6 46a3.3 3.3 0 0 1 0-4.7l5.7 5.6Zm-6.7 0a4.7 4.7 0 0 0 6.7 0l-5.7-5.6a3.3 3.3 0 0 1 4.7 0L35.6 47Zm-5.3-19c1.8 0 3.2 1.5 3.2 3.3h-8c0 2.6 2.1 4.7 4.8 4.7v-8Zm9.2 11.6a5 5 0 0 0-5.8-1l3.5 7.2a3 3 0 0 1-3.4-.7l5.7-5.5Z" fill="#fff" mask="url(#a)"/><path fill="#fff" d="M29.5 19v-4H31v4z"/><rect x="22.5" y="15" width="15.5" height="1.5" rx=".8" fill="#fff"/></g></symbol><symbol id="index-tub"><g fill="none"><path fill="#68B738" d="M.5 0h60v60H.5z"/><g clip-path="url(#a)" fill="#fff"><path d="M36.3 31.5c-1.7 0-3.1 1.5-3.1 3.3 0 1.8 1.4 3.3 3 3.3 1.8 0 3.2-1.5 3.2-3.3 0-1.8-1.4-3.3-3.1-3.3Zm0 5c-1 0-1.6-.8-1.6-1.7 0-1 .7-1.7 1.6-1.7.9 0 1.6.7 1.6 1.7s-.7 1.7-1.6 1.7ZM27.1 13c-1.8 0-3.2 1.5-3.2 3.4s1.4 3.4 3.2 3.4c1.8 0 3.2-1.5 3.2-3.4S28.9 13 27 13Zm0 5.5c-1 0-2-1-2-2.1s1-2 2-2 2 .9 2 2-1 2-2 2Zm-3.4 12.1c-1.3 0-2.3 1.1-2.3 2.5s1 2.5 2.3 2.5c1.3 0 2.4-1.1 2.4-2.5s-1-2.5-2.4-2.5Zm-.2 1.9c-.5 0 1.2 1.1 1.2.6 0-.5-1.7.4-1.2.4s1-.9 1-.4-.5-.6-1-.6ZM34 22.8s3-.9 6.2 1.5c.9.7 1.7 1.3 1.1 2-.3.4-.6.7-1.7-.4a7 7 0 0 0-5.6-1.5c-1.1.2-2 .6-3.6 2.2A8.3 8.3 0 0 1 24 29a8.1 8.1 0 0 1-5.2-2.6c-.3-.4-.3-.9-.1-1.1.1-.3.8-.5 1.2-.1.3.3 2 2 3.8 2 1.7.1 3.4.2 5.7-2 2.3-2.1 3.5-2.3 4.7-2.5Z"/><mask id="b"><path d="M44.1 39.8V21.2c0-.6-.3-.7-.5-.7h-.5c-.5 0-.5.6-.5.7v18.6c0 .4-.1 1.2-.8 2-.9.6-1.7.5-1.7.5H19.5c-.4 0-1-.2-1.6-1-.6-.8-.5-1.9-.5-1.9v-18c0-1-.7-.9-.7-.9h-.3c-.5 0-.5.6-.5.8v18.5c0 1.4.4 2.4 1.5 3.4 1.1.9 2.4.8 2.4.8h20.6c.8 0 2-.4 2.9-1.5.9-1.2.8-2.7.8-2.7Z"/></mask><path d="M44.1 39.8V21.2c0-.6-.3-.7-.5-.7h-.5c-.5 0-.5.6-.5.7v18.6c0 .4-.1 1.2-.8 2-.9.6-1.7.5-1.7.5H19.5c-.4 0-1-.2-1.6-1-.6-.8-.5-1.9-.5-1.9v-18c0-1-.7-.9-.7-.9h-.3c-.5 0-.5.6-.5.8v18.5c0 1.4.4 2.4 1.5 3.4 1.1.9 2.4.8 2.4.8h20.6c.8 0 2-.4 2.9-1.5.9-1.2.8-2.7.8-2.7Z"/><path d="M44.1 39.8h-20v.8l20-.8Zm-.5-19.3.7-20h-.7v20Zm-1 .7-20-.1v.1h20Zm0 .1h-20 20Zm0 18.5-20-.7 20 .7Zm-.8 2 13 15 .4-.3.4-.4-13.8-14.4Zm-1.7.5 2.3-19.8-1.1-.2H40v20Zm-20.6 0L16 62l1.1.2h1.2l1-19.9Zm-1.6-1L1.5 52.8 18 41.3Zm-.5-1.9 20 2.1v-2h-20Zm-.7-18.9v20h.8l-.8-20Zm-.8.8-20-.3v.3h20Zm1.5 21.9-13 15.1 13-15.1Zm2.4.8V24h-1.3l1.3 20Zm23.5-1.5L58.8 55 43.3 42.5ZM64 39.8V21.2H24v18.6h40Zm0-18.6A20.6 20.6 0 0 0 44.3.5l-1.4 40a19.5 19.5 0 0 1-18.8-19.3h40ZM43.6.5h-.5v40h.5V.5Zm-.5 0a20.5 20.5 0 0 0-20.5 20.6l40 .3c0 .7 0 3.9-1.7 7.6a19.5 19.5 0 0 1-17.8 11.5V.5ZM22.6 21.2h40-40Zm0 0v.1h40-40Zm0 .1v10.5a8664.8 8664.8 0 0 1 0 7.3c0 .8 0 .4 0 0l40 1.5v-1.5a1362.3 1362.3 0 0 0 0-7.3V21.3h-40Zm0 17.8c0-1.4.4-7 5.3-11.8l27.7 28.8a22.7 22.7 0 0 0 7-15.5l-40-1.5Zm6.1-12.5a17.5 17.5 0 0 1 13.6-4.1A2078 2078 0 0 1 38 62.2a43 43 0 0 0 2.9.1 22 22 0 0 0 14-5.4l-26-30.3Zm11.4 15.7v-20H37a17380.8 17380.8 0 0 1-16.4 0c-1 0-.6 0 0 0l-2.2 40H40v-20ZM23 22.6a17.6 17.6 0 0 1 11.3 7.2l-32.7 23c5 7.1 12 8.8 14.6 9.2L23 22.6Zm11.3 7.2a17.3 17.3 0 0 1 3.1 11.7l-19.9-2a3223.4 3223.4 0 0 0-19.9-2.1 19.9 19.9 0 0 0 0 5c.3 2.2 1.1 6.3 4 10.4l32.7-23Zm3.2 9.6v-18h-40v18h40Zm0-18A20.7 20.7 0 0 0 16 .4l.7 20 .8 20a28.2 28.2 0 0 1-4-.3 19.3 19.3 0 0 1-16-18.9h40ZM16.7.4h-.3v40h.3V.5Zm-.3 0A20.5 20.5 0 0 0-4 21l40 .6c0 .7 0 4-1.8 7.7a19.4 19.4 0 0 1-17.7 11.2V.5ZM-4 21.3v18.6h40V21.2H-4Zm0 18.5c0 7 2.9 13.7 8.5 18.5l26-30.3A15.6 15.6 0 0 1 36 39.8H-4Zm8.5 18.5A23.6 23.6 0 0 0 20.9 64h.1l-1.2-20a2530.9 2530.9 0 0 1-1.3-20h.1a16 16 0 0 1 4.5.4c2 .4 4.7 1.3 7.3 3.6l-26 30.3ZM19.8 44v20h20.6l-.1-40H19.8v20Zm20.6 20c7.1 0 13.8-3.3 18.4-8.9l-31-25.3c2.7-3.3 7.1-5.8 12.5-5.8l.1 40Zm18.4-8.9a24 24 0 0 0 5.3-16l-20 .7-20 .8v-.1a17.1 17.1 0 0 1 .3-3.7 16 16 0 0 1 3.4-7l31 25.3Z" mask="url(#b)"/></g></g></symbol></svg>