<svg xmlns="http://www.w3.org/2000/svg">
  <symbol viewBox="0 0 24 12" id="arrow-icon">
    <path stroke="#000" stroke-width="2" d="M0 6h18"/><path d="m24 6-6.8 5.2V.8L24 6Z"/>
  </symbol>
  <symbol viewBox="0 0 28 22" id="vk-icon">
    <path d="M1 5.3C1 4.5 1.5 4 2.5 4h4c.3 0 .5.1.5.4l1.4 3.2a39.8 39.8 0 0 0 2.4 3.4s.2 0 .2-.2l.1-.3V6.2c0-.3 0-.5-.2-.6l-.8-.2c-.3 0-.5-.3-.5-.6v-.1C10 3.6 11.1 3 12.8 3h1.5c.7 0 1.3.2 1.7.5.4.3.7.8.7 1.5v5.7l.3.1c.3 0 .5-.1.7-.4A17.7 17.7 0 0 0 21 5l.6-.7.8-.4H26.9c.4 0 .7.2.8.5l.2.3a2.4 2.4 0 0 1 0 .6v.1c0 .7-.4 1.5-.9 2.2-.5.8-1.1 1.7-2 2.6a27.6 27.6 0 0 0-1.6 2.3c0 .1 0 .3.2.5l3.9 4.6c.2.3.3.5.3.9s-.2.7-.5 1a2 2 0 0 1-1.1.3h-4.6l-.1.1c-.4 0-.8-.2-1.1-.5a241.3 241.3 0 0 1-3-3.3 38.5 38.5 0 0 0-.4 2.3l-.1.4c-.2.6-.6 1-1.1 1h-3c-1.5 0-3-.6-4.4-1.8-1.5-1.3-2.8-3-4-5A47.5 47.5 0 0 1 1 5.3ZM17 12c-.4 0-.7-.1-1-.3a.9.9 0 0 1-.5-.8V5c0-.3 0-.6-.2-.7-.2-.2-.5-.2-1-.2h-1.5c-.7 0-1.3.1-1.7.4.8.3 1.2 1 1.2 1.7v4.4c0 .4-.2.8-.6 1-.3.3-.6.5-1 .5-.6 0-1-.3-1.3-.8-1.3-2-2.4-3.8-3-5.6L6 5.1H2.2v.7l.6 1.4a33 33 0 0 0 4.8 8.6c1.8 2 3.5 3.1 5.2 3.1h2.9l.1-.4v-.3l.6-2.2.3-.6c.2-.2.5-.3.7-.3.5 0 .9.3 1.3.8l2.3 2.7c.2.2.3.3.5.3h4.4c.5 0 .8-.1.8-.4l-.1-.2-3.9-4.6c-.3-.3-.4-.7-.4-1 0-.5.1-.9.4-1.3L24 9.8l1.8-2.2c.5-.7.8-1.3 1-1.9V5.1h-4.2c-.3 0-.5.2-.6.4l-.2.5c-.4 1.1-1.6 3-3.5 5.3-.4.4-.8.6-1.3.6Z"/>
  </symbol>
  <symbol viewBox="0 0 28 22" id="youtube-icon">
    <path d="m17.9 10.8-5.3-3.5a.7.7 0 0 0-1 .5v7a.7.7 0 0 0 1 .6l5.3-3.5a.7.7 0 0 0 0-1.1Zm-5 2.8V9.1l3.4 2.2-3.4 2.3ZM25.4 5a2.4 2.4 0 0 0-1.5-1.6C20.2 2 14.3 2 14 2c-.3 0-6.2 0-10 1.4A2.4 2.4 0 0 0 2.7 5C2.3 6.1 2 8 2 11.3s.3 5.3.6 6.3a2.4 2.4 0 0 0 1.5 1.7c3.7 1.4 9.6 1.4 9.9 1.4.8 0 6.4 0 10-1.4a2.4 2.4 0 0 0 1.4-1.7c.3-1 .6-3 .6-6.3 0-3.2-.3-5.2-.6-6.3ZM24 17.3a1 1 0 0 1-.6.7C20 19.4 14 19.4 14 19.4c0 0-6 0-9.5-1.4a1 1 0 0 1-.6-.7c-.3-1-.6-2.8-.6-6 0-3 .3-5 .6-6a1 1 0 0 1 .6-.7C8 3.3 14 3.3 14 3.3c0 0 6 0 9.5 1.3a1 1 0 0 1 .6.8c.3 1 .6 2.8.6 6 0 3-.3 4.9-.6 6Z"/>
  </symbol>
  <symbol viewBox="0 0 28 22" id="tg-icon">
    <path d="m23.5 3.2.2.6L21 19.5a.7.7 0 0 1-1 .5l-8-5.3a.7.7 0 0 1 0-1l2.5-3.2-4.3 2.9h-.7l-5.2-2.6a.7.7 0 0 1 0-1.2L22.8 3c.2 0 .5 0 .7.2ZM6.3 10.3l3.6 1.8 7.5-5a.7.7 0 0 1 .9 1l-4.8 6 6.4 4.2 2.3-13.6-15.9 5.6Z"/>
  </symbol>
  <symbol viewBox="0 0 27 34" id="html-academy-icon">
    <path d="M13.6 0h-.1L0 1.4V26l13.5 8L27 26V1.4L13.6 0Zm11.6 25-11.7 7-11.7-7V15l11.7 6.8v1.3l-8-4.7v1.2l8 4.8v1.3l-8-4.8v1.2l8 4.9 8.1-4.9V17l3.6-2.1V25Zm0-11.5L22 15.3l-1.5 1-7-4.3v1.2l6 3.6-.2.1-.8.5-5-3v1.3l3.9 2.3-1 .6-3-1.7v1.2l2 1.2-2 1.1-11.6-6.8 11.6-7 11.8 6.9Zm0-1.3L13.4 5.3l-11.6 7V3l11.7-1.2L25.2 3v9.2Z"/>
  </symbol>
  <symbol viewBox="0 0 19 14" id="email-icon" fill="none">
    <path stroke-width="1.3" d="M1.2 6v8M18.2 6v8M.5 13.3h18M.5 1.4h18M17.9 3.2 9.5 9.7 1.2 3.2V1.6h16.7v1.6Z"/>
  </symbol>
  <symbol viewBox="0 0 20 20" id="phone-icon">
    <g clip-path="url(#a)">
      <path d="M17.8 9.4H9.6v1.2h8.2l-2 2.1.8.9 3-3.1a.8.8 0 0 0 0-.9l-3-3.1-.9.9 2 2ZM8.4 19.4v-6.2l-.2-.4a.6.6 0 0 0-.4-.2H3.6c0 .3.1.6.3.8.2.3.5.4.8.4h2.4v5H3.6a1.6 1.6 0 0 1-1.3-.5 1.8 1.8 0 0 1-.5-1.2v-14c0-.5.1-1 .4-1.2.3-.4.8-.6 1.2-.6h3.7v5H4.8c-.3 0-.6.1-.8.4-.2.2-.3.5-.3.8h4.2c.1 0 .3 0 .4-.2l.2-.4V.6c0-.2-.2-.3-.3-.4a.8.8 0 0 0-.4-.2H3.6a2.8 2.8 0 0 0-2 .8A3 3 0 0 0 .5 3v13.9a3 3 0 0 0 .8 2.2 2.8 2.8 0 0 0 2 .9h4.4a.5.5 0 0 0 .4-.1.5.5 0 0 0 .2-.4Z"/>
    </g>
    <defs>
      <clipPath id="a"><path transform="translate(.6)" d="M0 0h19.1v20H0z"/></clipPath>
    </defs>
  </symbol>
</svg>
